{
    "asset" : {
        "generator" : "Khronos glTF Blender I/O v1.6.16",
        "version" : "2.0"
    },
    "scene" : 0,
    "scenes" : [
        {
            "name" : "Scene",
            "nodes" : [
                0
            ]
        }
    ],
    "nodes" : [
        {
            "mesh" : 0,
            "name" : "shapefile.007"
        }
    ],
    "materials" : [
        {
            "name" : "default_material.005",
            "pbrMetallicRoughness" : {
                "baseColorFactor" : [
                    0.800000011920929,
                    0.800000011920929,
                    0.800000011920929,
                    1
                ],
                "metallicFactor" : 0.5,
                "roughnessFactor" : 0.30000001192092896
            }
        }
    ],
    "meshes" : [
        {
            "name" : "Mesh_0.069",
            "primitives" : [
                {
                    "attributes" : {
                        "POSITION" : 0,
                        "NORMAL" : 1
                    },
                    "indices" : 2,
                    "material" : 0
                }
            ]
        }
    ],
    "accessors" : [
        {
            "bufferView" : 0,
            "componentType" : 5126,
            "count" : 1188,
            "max" : [
                8.376338958740234,
                4.568058967590332,
                -7.4339447021484375
            ],
            "min" : [
                1.7930066585540771,
                1.2163459062576294,
                -8.037055969238281
            ],
            "type" : "VEC3"
        },
        {
            "bufferView" : 1,
            "componentType" : 5126,
            "count" : 1188,
            "type" : "VEC3"
        },
        {
            "bufferView" : 2,
            "componentType" : 5123,
            "count" : 1788,
            "type" : "SCALAR"
        }
    ],
    "bufferViews" : [
        {
            "buffer" : 0,
            "byteLength" : 14256,
            "byteOffset" : 0
        },
        {
            "buffer" : 0,
            "byteLength" : 14256,
            "byteOffset" : 14256
        },
        {
            "buffer" : 0,
            "byteLength" : 3576,
            "byteOffset" : 28512
        }
    ],
    "buffers" : [
        {
            "byteLength" : 32088,
            "uri" : "data:application/octet-stream;base64,"
        }
    ]
}
