{
    "asset" : {
        "generator" : "Khronos glTF Blender I/O v1.6.16",
        "version" : "2.0"
    },
    "scene" : 0,
    "scenes" : [
        {
            "name" : "Scene",
            "nodes" : [
                0
            ]
        }
    ],
    "nodes" : [
        {
            "mesh" : 0,
            "name" : "shapefile.009"
        }
    ],
    "materials" : [
        {
            "name" : "default_material.005",
            "pbrMetallicRoughness" : {
                "baseColorFactor" : [
                    0.800000011920929,
                    0.800000011920929,
                    0.800000011920929,
                    1
                ],
                "metallicFactor" : 0.5,
                "roughnessFactor" : 0.30000001192092896
            }
        }
    ],
    "meshes" : [
        {
            "name" : "Mesh_0.071",
            "primitives" : [
                {
                    "attributes" : {
                        "POSITION" : 0,
                        "NORMAL" : 1
                    },
                    "indices" : 2,
                    "material" : 0
                }
            ]
        }
    ],
    "accessors" : [
        {
            "bufferView" : 0,
            "componentType" : 5126,
            "count" : 740,
            "max" : [
                14.980437278747559,
                4.852793216705322,
                -7.449783802032471
            ],
            "min" : [
                11.720158576965332,
                4.66281270980835,
                -10.77121639251709
            ],
            "type" : "VEC3"
        },
        {
            "bufferView" : 1,
            "componentType" : 5126,
            "count" : 740,
            "type" : "VEC3"
        },
        {
            "bufferView" : 2,
            "componentType" : 5123,
            "count" : 1116,
            "type" : "SCALAR"
        }
    ],
    "bufferViews" : [
        {
            "buffer" : 0,
            "byteLength" : 8880,
            "byteOffset" : 0
        },
        {
            "buffer" : 0,
            "byteLength" : 8880,
            "byteOffset" : 8880
        },
        {
            "buffer" : 0,
            "byteLength" : 2232,
            "byteOffset" : 17760
        }
    ],
    "buffers" : [
        {
            "byteLength" : 19992,
            "uri" : "data:application/octet-stream;base64,"
        }
    ]
}
