{
    "asset" : {
        "generator" : "Khronos glTF Blender I/O v1.6.16",
        "version" : "2.0"
    },
    "scene" : 0,
    "scenes" : [
        {
            "name" : "Scene",
            "nodes" : [
                0
            ]
        }
    ],
    "nodes" : [
        {
            "mesh" : 0,
            "name" : "shapefile.014"
        }
    ],
    "materials" : [
        {
            "name" : "default_material.005",
            "pbrMetallicRoughness" : {
                "baseColorFactor" : [
                    0.800000011920929,
                    0.800000011920929,
                    0.800000011920929,
                    1
                ],
                "metallicFactor" : 0.5,
                "roughnessFactor" : 0.30000001192092896
            }
        }
    ],
    "meshes" : [
        {
            "name" : "Mesh_0.076",
            "primitives" : [
                {
                    "attributes" : {
                        "POSITION" : 0,
                        "NORMAL" : 1
                    },
                    "indices" : 2,
                    "material" : 0
                }
            ]
        }
    ],
    "accessors" : [
        {
            "bufferView" : 0,
            "componentType" : 5126,
            "count" : 254,
            "max" : [
                23.39986228942871,
                4.780098915100098,
                -8.977681159973145
            ],
            "min" : [
                23.08198356628418,
                4.661606788635254,
                -10.493319511413574
            ],
            "type" : "VEC3"
        },
        {
            "bufferView" : 1,
            "componentType" : 5126,
            "count" : 254,
            "type" : "VEC3"
        },
        {
            "bufferView" : 2,
            "componentType" : 5123,
            "count" : 396,
            "type" : "SCALAR"
        }
    ],
    "bufferViews" : [
        {
            "buffer" : 0,
            "byteLength" : 3048,
            "byteOffset" : 0
        },
        {
            "buffer" : 0,
            "byteLength" : 3048,
            "byteOffset" : 3048
        },
        {
            "buffer" : 0,
            "byteLength" : 792,
            "byteOffset" : 6096
        }
    ],
    "buffers" : [
        {
            "byteLength" : 6888,
            "uri" : "data:application/octet-stream;base64,"
        }
    ]
}
