{
    "asset" : {
        "generator" : "Khronos glTF Blender I/O v1.6.16",
        "version" : "2.0"
    },
    "scene" : 0,
    "scenes" : [
        {
            "name" : "Scene",
            "nodes" : [
                0
            ]
        }
    ],
    "nodes" : [
        {
            "mesh" : 0,
            "name" : "shapefile.015"
        }
    ],
    "materials" : [
        {
            "name" : "default_material.005",
            "pbrMetallicRoughness" : {
                "baseColorFactor" : [
                    0.800000011920929,
                    0.800000011920929,
                    0.800000011920929,
                    1
                ],
                "metallicFactor" : 0.5,
                "roughnessFactor" : 0.30000001192092896
            }
        }
    ],
    "meshes" : [
        {
            "name" : "Mesh_0.077",
            "primitives" : [
                {
                    "attributes" : {
                        "POSITION" : 0,
                        "NORMAL" : 1
                    },
                    "indices" : 2,
                    "material" : 0
                }
            ]
        }
    ],
    "accessors" : [
        {
            "bufferView" : 0,
            "componentType" : 5126,
            "count" : 1220,
            "max" : [
                30.839773178100586,
                4.780102252960205,
                -9.685737609863281
            ],
            "min" : [
                23.345197677612305,
                4.6628031730651855,
                -10.535263061523438
            ],
            "type" : "VEC3"
        },
        {
            "bufferView" : 1,
            "componentType" : 5126,
            "count" : 1220,
            "type" : "VEC3"
        },
        {
            "bufferView" : 2,
            "componentType" : 5123,
            "count" : 1836,
            "type" : "SCALAR"
        }
    ],
    "bufferViews" : [
        {
            "buffer" : 0,
            "byteLength" : 14640,
            "byteOffset" : 0
        },
        {
            "buffer" : 0,
            "byteLength" : 14640,
            "byteOffset" : 14640
        },
        {
            "buffer" : 0,
            "byteLength" : 3672,
            "byteOffset" : 29280
        }
    ],
    "buffers" : [
        {
            "byteLength" : 32952,
            "uri" : "data:application/octet-stream;base64,"
        }
    ]
}
