{
    "asset" : {
        "generator" : "Khronos glTF Blender I/O v1.6.16",
        "version" : "2.0"
    },
    "scene" : 0,
    "scenes" : [
        {
            "name" : "Scene",
            "nodes" : [
                0,
                1,
                2,
                3,
                4,
                5,
                6,
                7,
                8
            ]
        }
    ],
    "nodes" : [
        {
            "mesh" : 0,
            "name" : "\u5713\u67f1\u9ad4",
            "rotation" : [
                0,
                0.9990482330322266,
                0,
                0.04361933842301369
            ]
        },
        {
            "mesh" : 1,
            "name" : "\u5713\u67f1\u9ad4.001",
            "rotation" : [
                0.030843527987599373,
                0.7064337730407715,
                -0.7064337730407715,
                0.030843527987599373
            ]
        },
        {
            "mesh" : 2,
            "name" : "\u5713\u67f1\u9ad4.002",
            "rotation" : [
                -0.7064337730407715,
                0.7064337730407715,
                -0.030843527987599373,
                0.030843527987599373
            ]
        },
        {
            "mesh" : 3,
            "name" : "\u5713\u67f1\u9ad4.003",
            "rotation" : [
                0.030843527987599373,
                0.7064337730407715,
                -0.7064337730407715,
                0.030843527987599373
            ]
        },
        {
            "mesh" : 4,
            "name" : "\u5713\u67f1\u9ad4.004",
            "rotation" : [
                -0.7064337730407715,
                0.7064337730407715,
                -0.030843527987599373,
                0.030843527987599373
            ]
        },
        {
            "mesh" : 5,
            "name" : "\u5713\u67f1\u9ad4.005",
            "rotation" : [
                -0.7064337730407715,
                0.7064337730407715,
                -0.030843527987599373,
                0.030843527987599373
            ]
        },
        {
            "mesh" : 6,
            "name" : "\u5713\u67f1\u9ad4.006",
            "rotation" : [
                0.030843527987599373,
                0.7064337730407715,
                -0.7064337730407715,
                0.030843527987599373
            ]
        },
        {
            "mesh" : 7,
            "name" : "\u5713\u67f1\u9ad4.007",
            "rotation" : [
                -0.7064337730407715,
                0.7064337730407715,
                -0.030843527987599373,
                0.030843527987599373
            ]
        },
        {
            "mesh" : 8,
            "name" : "\u5713\u67f1\u9ad4.008",
            "rotation" : [
                0.030843527987599373,
                0.7064337730407715,
                -0.7064337730407715,
                0.030843527987599373
            ]
        }
    ],
    "meshes" : [
        {
            "name" : "\u5713\u67f1\u9ad4",
            "primitives" : [
                {
                    "attributes" : {
                        "POSITION" : 0,
                        "NORMAL" : 1,
                        "TEXCOORD_0" : 2
                    },
                    "indices" : 3
                }
            ]
        },
        {
            "name" : "\u5713\u67f1\u9ad4.001",
            "primitives" : [
                {
                    "attributes" : {
                        "POSITION" : 4,
                        "NORMAL" : 5,
                        "TEXCOORD_0" : 6
                    },
                    "indices" : 7
                }
            ]
        },
        {
            "name" : "\u5713\u67f1\u9ad4.002",
            "primitives" : [
                {
                    "attributes" : {
                        "POSITION" : 8,
                        "NORMAL" : 9,
                        "TEXCOORD_0" : 10
                    },
                    "indices" : 11
                }
            ]
        },
        {
            "name" : "\u5713\u67f1\u9ad4.003",
            "primitives" : [
                {
                    "attributes" : {
                        "POSITION" : 12,
                        "NORMAL" : 13,
                        "TEXCOORD_0" : 14
                    },
                    "indices" : 15
                }
            ]
        },
        {
            "name" : "\u5713\u67f1\u9ad4.004",
            "primitives" : [
                {
                    "attributes" : {
                        "POSITION" : 16,
                        "NORMAL" : 17,
                        "TEXCOORD_0" : 18
                    },
                    "indices" : 19
                }
            ]
        },
        {
            "name" : "\u5713\u67f1\u9ad4.005",
            "primitives" : [
                {
                    "attributes" : {
                        "POSITION" : 20,
                        "NORMAL" : 21,
                        "TEXCOORD_0" : 22
                    },
                    "indices" : 23
                }
            ]
        },
        {
            "name" : "\u5713\u67f1\u9ad4.006",
            "primitives" : [
                {
                    "attributes" : {
                        "POSITION" : 24,
                        "NORMAL" : 25,
                        "TEXCOORD_0" : 26
                    },
                    "indices" : 15
                }
            ]
        },
        {
            "name" : "\u5713\u67f1\u9ad4.007",
            "primitives" : [
                {
                    "attributes" : {
                        "POSITION" : 27,
                        "NORMAL" : 28,
                        "TEXCOORD_0" : 29
                    },
                    "indices" : 30
                }
            ]
        },
        {
            "name" : "\u5713\u67f1\u9ad4.008",
            "primitives" : [
                {
                    "attributes" : {
                        "POSITION" : 31,
                        "NORMAL" : 32,
                        "TEXCOORD_0" : 33
                    },
                    "indices" : 34
                }
            ]
        }
    ],
    "accessors" : [
        {
            "bufferView" : 0,
            "componentType" : 5126,
            "count" : 261,
            "max" : [
                0.05000000074505806,
                10,
                0.05000000074505806
            ],
            "min" : [
                -0.05000000074505806,
                0,
                -0.05000000074505806
            ],
            "type" : "VEC3"
        },
        {
            "bufferView" : 1,
            "componentType" : 5126,
            "count" : 261,
            "type" : "VEC3"
        },
        {
            "bufferView" : 2,
            "componentType" : 5126,
            "count" : 261,
            "type" : "VEC2"
        },
        {
            "bufferView" : 3,
            "componentType" : 5123,
            "count" : 372,
            "type" : "SCALAR"
        },
        {
            "bufferView" : 4,
            "componentType" : 5126,
            "count" : 264,
            "max" : [
                0.05000000074505806,
                15.999998092651367,
                -4.200000286102295
            ],
            "min" : [
                -0.05000000074505806,
                -1.9073486328125e-06,
                -4.3000006675720215
            ],
            "type" : "VEC3"
        },
        {
            "bufferView" : 5,
            "componentType" : 5126,
            "count" : 264,
            "type" : "VEC3"
        },
        {
            "bufferView" : 6,
            "componentType" : 5126,
            "count" : 264,
            "type" : "VEC2"
        },
        {
            "bufferView" : 7,
            "componentType" : 5123,
            "count" : 372,
            "type" : "SCALAR"
        },
        {
            "bufferView" : 8,
            "componentType" : 5126,
            "count" : 264,
            "max" : [
                -4.199999809265137,
                3.9999990463256836,
                6.0500006675720215
            ],
            "min" : [
                -4.300000190734863,
                -8.344650268554688e-07,
                5.950000286102295
            ],
            "type" : "VEC3"
        },
        {
            "bufferView" : 9,
            "componentType" : 5126,
            "count" : 264,
            "type" : "VEC3"
        },
        {
            "bufferView" : 10,
            "componentType" : 5126,
            "count" : 264,
            "type" : "VEC2"
        },
        {
            "bufferView" : 11,
            "componentType" : 5123,
            "count" : 372,
            "type" : "SCALAR"
        },
        {
            "bufferView" : 12,
            "componentType" : 5126,
            "count" : 294,
            "max" : [
                4.050000190734863,
                15.99999713897705,
                -4.200000762939453
            ],
            "min" : [
                3.950000047683716,
                5.999997138977051,
                -4.30000114440918
            ],
            "type" : "VEC3"
        },
        {
            "bufferView" : 13,
            "componentType" : 5126,
            "count" : 294,
            "type" : "VEC3"
        },
        {
            "bufferView" : 14,
            "componentType" : 5126,
            "count" : 294,
            "type" : "VEC2"
        },
        {
            "bufferView" : 15,
            "componentType" : 5123,
            "count" : 372,
            "type" : "SCALAR"
        },
        {
            "bufferView" : 16,
            "componentType" : 5126,
            "count" : 254,
            "max" : [
                -4.199999809265137,
                3.9999990463256836,
                16.049999237060547
            ],
            "min" : [
                -4.300000190734863,
                -8.344650268554688e-07,
                15.949999809265137
            ],
            "type" : "VEC3"
        },
        {
            "bufferView" : 17,
            "componentType" : 5126,
            "count" : 254,
            "type" : "VEC3"
        },
        {
            "bufferView" : 18,
            "componentType" : 5126,
            "count" : 254,
            "type" : "VEC2"
        },
        {
            "bufferView" : 19,
            "componentType" : 5123,
            "count" : 372,
            "type" : "SCALAR"
        },
        {
            "bufferView" : 20,
            "componentType" : 5126,
            "count" : 254,
            "max" : [
                -8.44999885559082,
                3.9999985694885254,
                16.049999237060547
            ],
            "min" : [
                -8.549999237060547,
                -1.430511474609375e-06,
                15.949999809265137
            ],
            "type" : "VEC3"
        },
        {
            "bufferView" : 21,
            "componentType" : 5126,
            "count" : 254,
            "type" : "VEC3"
        },
        {
            "bufferView" : 22,
            "componentType" : 5126,
            "count" : 254,
            "type" : "VEC2"
        },
        {
            "bufferView" : 23,
            "componentType" : 5123,
            "count" : 372,
            "type" : "SCALAR"
        },
        {
            "bufferView" : 24,
            "componentType" : 5126,
            "count" : 294,
            "max" : [
                4.050000190734863,
                15.99999713897705,
                -8.450000762939453
            ],
            "min" : [
                3.950000047683716,
                5.999997138977051,
                -8.55000114440918
            ],
            "type" : "VEC3"
        },
        {
            "bufferView" : 25,
            "componentType" : 5126,
            "count" : 294,
            "type" : "VEC3"
        },
        {
            "bufferView" : 26,
            "componentType" : 5126,
            "count" : 294,
            "type" : "VEC2"
        },
        {
            "bufferView" : 27,
            "componentType" : 5126,
            "count" : 259,
            "max" : [
                -8.44999885559082,
                3.9999985694885254,
                6.0500006675720215
            ],
            "min" : [
                -8.549999237060547,
                -1.430511474609375e-06,
                5.950000286102295
            ],
            "type" : "VEC3"
        },
        {
            "bufferView" : 28,
            "componentType" : 5126,
            "count" : 259,
            "type" : "VEC3"
        },
        {
            "bufferView" : 29,
            "componentType" : 5126,
            "count" : 259,
            "type" : "VEC2"
        },
        {
            "bufferView" : 30,
            "componentType" : 5123,
            "count" : 372,
            "type" : "SCALAR"
        },
        {
            "bufferView" : 31,
            "componentType" : 5126,
            "count" : 265,
            "max" : [
                0.05000000074505806,
                15.999998092651367,
                -8.449999809265137
            ],
            "min" : [
                -0.05000000074505806,
                -1.9073486328125e-06,
                -8.550000190734863
            ],
            "type" : "VEC3"
        },
        {
            "bufferView" : 32,
            "componentType" : 5126,
            "count" : 265,
            "type" : "VEC3"
        },
        {
            "bufferView" : 33,
            "componentType" : 5126,
            "count" : 265,
            "type" : "VEC2"
        },
        {
            "bufferView" : 34,
            "componentType" : 5123,
            "count" : 372,
            "type" : "SCALAR"
        }
    ],
    "bufferViews" : [
        {
            "buffer" : 0,
            "byteLength" : 3132,
            "byteOffset" : 0
        },
        {
            "buffer" : 0,
            "byteLength" : 3132,
            "byteOffset" : 3132
        },
        {
            "buffer" : 0,
            "byteLength" : 2088,
            "byteOffset" : 6264
        },
        {
            "buffer" : 0,
            "byteLength" : 744,
            "byteOffset" : 8352
        },
        {
            "buffer" : 0,
            "byteLength" : 3168,
            "byteOffset" : 9096
        },
        {
            "buffer" : 0,
            "byteLength" : 3168,
            "byteOffset" : 12264
        },
        {
            "buffer" : 0,
            "byteLength" : 2112,
            "byteOffset" : 15432
        },
        {
            "buffer" : 0,
            "byteLength" : 744,
            "byteOffset" : 17544
        },
        {
            "buffer" : 0,
            "byteLength" : 3168,
            "byteOffset" : 18288
        },
        {
            "buffer" : 0,
            "byteLength" : 3168,
            "byteOffset" : 21456
        },
        {
            "buffer" : 0,
            "byteLength" : 2112,
            "byteOffset" : 24624
        },
        {
            "buffer" : 0,
            "byteLength" : 744,
            "byteOffset" : 26736
        },
        {
            "buffer" : 0,
            "byteLength" : 3528,
            "byteOffset" : 27480
        },
        {
            "buffer" : 0,
            "byteLength" : 3528,
            "byteOffset" : 31008
        },
        {
            "buffer" : 0,
            "byteLength" : 2352,
            "byteOffset" : 34536
        },
        {
            "buffer" : 0,
            "byteLength" : 744,
            "byteOffset" : 36888
        },
        {
            "buffer" : 0,
            "byteLength" : 3048,
            "byteOffset" : 37632
        },
        {
            "buffer" : 0,
            "byteLength" : 3048,
            "byteOffset" : 40680
        },
        {
            "buffer" : 0,
            "byteLength" : 2032,
            "byteOffset" : 43728
        },
        {
            "buffer" : 0,
            "byteLength" : 744,
            "byteOffset" : 45760
        },
        {
            "buffer" : 0,
            "byteLength" : 3048,
            "byteOffset" : 46504
        },
        {
            "buffer" : 0,
            "byteLength" : 3048,
            "byteOffset" : 49552
        },
        {
            "buffer" : 0,
            "byteLength" : 2032,
            "byteOffset" : 52600
        },
        {
            "buffer" : 0,
            "byteLength" : 744,
            "byteOffset" : 54632
        },
        {
            "buffer" : 0,
            "byteLength" : 3528,
            "byteOffset" : 55376
        },
        {
            "buffer" : 0,
            "byteLength" : 3528,
            "byteOffset" : 58904
        },
        {
            "buffer" : 0,
            "byteLength" : 2352,
            "byteOffset" : 62432
        },
        {
            "buffer" : 0,
            "byteLength" : 3108,
            "byteOffset" : 64784
        },
        {
            "buffer" : 0,
            "byteLength" : 3108,
            "byteOffset" : 67892
        },
        {
            "buffer" : 0,
            "byteLength" : 2072,
            "byteOffset" : 71000
        },
        {
            "buffer" : 0,
            "byteLength" : 744,
            "byteOffset" : 73072
        },
        {
            "buffer" : 0,
            "byteLength" : 3180,
            "byteOffset" : 73816
        },
        {
            "buffer" : 0,
            "byteLength" : 3180,
            "byteOffset" : 76996
        },
        {
            "buffer" : 0,
            "byteLength" : 2120,
            "byteOffset" : 80176
        },
        {
            "buffer" : 0,
            "byteLength" : 744,
            "byteOffset" : 82296
        }
    ],
    "buffers" : [
        {
            "byteLength" : 83040,
            "uri" : "data:application/octet-stream;base64,"
        }
    ]
}
