{
    "asset" : {
        "generator" : "Khronos glTF Blender I/O v1.6.16",
        "version" : "2.0"
    },
    "scene" : 0,
    "scenes" : [
        {
            "name" : "Scene",
            "nodes" : [
                0,
                1,
                2,
                3,
                4,
                5,
                6,
                7,
                8
            ]
        }
    ],
    "nodes" : [
        {
            "mesh" : 0,
            "name" : "\u5713\u67f1\u9ad4",
            "translation" : [
                0,
                5,
                0
            ]
        },
        {
            "mesh" : 1,
            "name" : "\u5713\u67f1\u9ad4.001",
            "rotation" : [
                0.7071068286895752,
                0,
                0,
                0.7071068286895752
            ],
            "translation" : [
                0,
                4.25,
                8
            ]
        },
        {
            "mesh" : 2,
            "name" : "\u5713\u67f1\u9ad4.002",
            "rotation" : [
                0,
                0,
                -0.7071068286895752,
                0.7071068286895752
            ],
            "translation" : [
                2,
                4.25,
                6
            ]
        },
        {
            "mesh" : 3,
            "name" : "\u5713\u67f1\u9ad4.003",
            "rotation" : [
                0.7071068286895752,
                0,
                0,
                0.7071068286895752
            ],
            "translation" : [
                4,
                4.25,
                11
            ]
        },
        {
            "mesh" : 4,
            "name" : "\u5713\u67f1\u9ad4.004",
            "rotation" : [
                0,
                0,
                -0.7071068286895752,
                0.7071068286895752
            ],
            "translation" : [
                2,
                4.25,
                16
            ]
        },
        {
            "mesh" : 5,
            "name" : "\u5713\u67f1\u9ad4.008",
            "rotation" : [
                0.7071068286895752,
                0,
                0,
                0.7071068286895752
            ],
            "translation" : [
                0,
                8.5,
                8
            ]
        },
        {
            "mesh" : 6,
            "name" : "\u5713\u67f1\u9ad4.007",
            "rotation" : [
                0,
                0,
                -0.7071068286895752,
                0.7071068286895752
            ],
            "translation" : [
                2,
                8.5,
                6
            ]
        },
        {
            "mesh" : 7,
            "name" : "\u5713\u67f1\u9ad4.006",
            "rotation" : [
                0.7071068286895752,
                0,
                0,
                0.7071068286895752
            ],
            "translation" : [
                4,
                8.5,
                11
            ]
        },
        {
            "mesh" : 8,
            "name" : "\u5713\u67f1\u9ad4.005",
            "rotation" : [
                0,
                0,
                -0.7071068286895752,
                0.7071068286895752
            ],
            "translation" : [
                2,
                8.5,
                16
            ]
        }
    ],
    "meshes" : [
        {
            "name" : "\u5713\u67f1\u9ad4",
            "primitives" : [
                {
                    "attributes" : {
                        "POSITION" : 0,
                        "NORMAL" : 1,
                        "TEXCOORD_0" : 2
                    },
                    "indices" : 3
                }
            ]
        },
        {
            "name" : "\u5713\u67f1\u9ad4.001",
            "primitives" : [
                {
                    "attributes" : {
                        "POSITION" : 4,
                        "NORMAL" : 5,
                        "TEXCOORD_0" : 6
                    },
                    "indices" : 3
                }
            ]
        },
        {
            "name" : "\u5713\u67f1\u9ad4.002",
            "primitives" : [
                {
                    "attributes" : {
                        "POSITION" : 7,
                        "NORMAL" : 8,
                        "TEXCOORD_0" : 9
                    },
                    "indices" : 3
                }
            ]
        },
        {
            "name" : "\u5713\u67f1\u9ad4.003",
            "primitives" : [
                {
                    "attributes" : {
                        "POSITION" : 10,
                        "NORMAL" : 11,
                        "TEXCOORD_0" : 12
                    },
                    "indices" : 3
                }
            ]
        },
        {
            "name" : "\u5713\u67f1\u9ad4.004",
            "primitives" : [
                {
                    "attributes" : {
                        "POSITION" : 13,
                        "NORMAL" : 14,
                        "TEXCOORD_0" : 15
                    },
                    "indices" : 3
                }
            ]
        },
        {
            "name" : "\u5713\u67f1\u9ad4.008",
            "primitives" : [
                {
                    "attributes" : {
                        "POSITION" : 16,
                        "NORMAL" : 17,
                        "TEXCOORD_0" : 18
                    },
                    "indices" : 3
                }
            ]
        },
        {
            "name" : "\u5713\u67f1\u9ad4.007",
            "primitives" : [
                {
                    "attributes" : {
                        "POSITION" : 19,
                        "NORMAL" : 20,
                        "TEXCOORD_0" : 21
                    },
                    "indices" : 3
                }
            ]
        },
        {
            "name" : "\u5713\u67f1\u9ad4.006",
            "primitives" : [
                {
                    "attributes" : {
                        "POSITION" : 22,
                        "NORMAL" : 23,
                        "TEXCOORD_0" : 24
                    },
                    "indices" : 3
                }
            ]
        },
        {
            "name" : "\u5713\u67f1\u9ad4.005",
            "primitives" : [
                {
                    "attributes" : {
                        "POSITION" : 25,
                        "NORMAL" : 26,
                        "TEXCOORD_0" : 27
                    },
                    "indices" : 3
                }
            ]
        }
    ],
    "accessors" : [
        {
            "bufferView" : 0,
            "componentType" : 5126,
            "count" : 192,
            "max" : [
                0.05000000074505806,
                5,
                0.05000000074505806
            ],
            "min" : [
                -0.05000000074505806,
                -5,
                -0.05000000074505806
            ],
            "type" : "VEC3"
        },
        {
            "bufferView" : 1,
            "componentType" : 5126,
            "count" : 192,
            "type" : "VEC3"
        },
        {
            "bufferView" : 2,
            "componentType" : 5126,
            "count" : 192,
            "type" : "VEC2"
        },
        {
            "bufferView" : 3,
            "componentType" : 5123,
            "count" : 372,
            "type" : "SCALAR"
        },
        {
            "bufferView" : 4,
            "componentType" : 5126,
            "count" : 192,
            "max" : [
                0.05000000074505806,
                8,
                0.05000000074505806
            ],
            "min" : [
                -0.05000000074505806,
                -8,
                -0.05000000074505806
            ],
            "type" : "VEC3"
        },
        {
            "bufferView" : 5,
            "componentType" : 5126,
            "count" : 192,
            "type" : "VEC3"
        },
        {
            "bufferView" : 6,
            "componentType" : 5126,
            "count" : 192,
            "type" : "VEC2"
        },
        {
            "bufferView" : 7,
            "componentType" : 5126,
            "count" : 192,
            "max" : [
                0.05000000074505806,
                2,
                0.05000000074505806
            ],
            "min" : [
                -0.05000000074505806,
                -2,
                -0.05000000074505806
            ],
            "type" : "VEC3"
        },
        {
            "bufferView" : 8,
            "componentType" : 5126,
            "count" : 192,
            "type" : "VEC3"
        },
        {
            "bufferView" : 9,
            "componentType" : 5126,
            "count" : 192,
            "type" : "VEC2"
        },
        {
            "bufferView" : 10,
            "componentType" : 5126,
            "count" : 192,
            "max" : [
                0.05000000074505806,
                5,
                0.05000000074505806
            ],
            "min" : [
                -0.05000000074505806,
                -5,
                -0.05000000074505806
            ],
            "type" : "VEC3"
        },
        {
            "bufferView" : 11,
            "componentType" : 5126,
            "count" : 192,
            "type" : "VEC3"
        },
        {
            "bufferView" : 12,
            "componentType" : 5126,
            "count" : 192,
            "type" : "VEC2"
        },
        {
            "bufferView" : 13,
            "componentType" : 5126,
            "count" : 192,
            "max" : [
                0.05000000074505806,
                2,
                0.05000000074505806
            ],
            "min" : [
                -0.05000000074505806,
                -2,
                -0.05000000074505806
            ],
            "type" : "VEC3"
        },
        {
            "bufferView" : 14,
            "componentType" : 5126,
            "count" : 192,
            "type" : "VEC3"
        },
        {
            "bufferView" : 15,
            "componentType" : 5126,
            "count" : 192,
            "type" : "VEC2"
        },
        {
            "bufferView" : 16,
            "componentType" : 5126,
            "count" : 192,
            "max" : [
                0.05000000074505806,
                8,
                0.05000000074505806
            ],
            "min" : [
                -0.05000000074505806,
                -8,
                -0.05000000074505806
            ],
            "type" : "VEC3"
        },
        {
            "bufferView" : 17,
            "componentType" : 5126,
            "count" : 192,
            "type" : "VEC3"
        },
        {
            "bufferView" : 18,
            "componentType" : 5126,
            "count" : 192,
            "type" : "VEC2"
        },
        {
            "bufferView" : 19,
            "componentType" : 5126,
            "count" : 192,
            "max" : [
                0.05000000074505806,
                2,
                0.05000000074505806
            ],
            "min" : [
                -0.05000000074505806,
                -2,
                -0.05000000074505806
            ],
            "type" : "VEC3"
        },
        {
            "bufferView" : 20,
            "componentType" : 5126,
            "count" : 192,
            "type" : "VEC3"
        },
        {
            "bufferView" : 21,
            "componentType" : 5126,
            "count" : 192,
            "type" : "VEC2"
        },
        {
            "bufferView" : 22,
            "componentType" : 5126,
            "count" : 192,
            "max" : [
                0.05000000074505806,
                5,
                0.05000000074505806
            ],
            "min" : [
                -0.05000000074505806,
                -5,
                -0.05000000074505806
            ],
            "type" : "VEC3"
        },
        {
            "bufferView" : 23,
            "componentType" : 5126,
            "count" : 192,
            "type" : "VEC3"
        },
        {
            "bufferView" : 24,
            "componentType" : 5126,
            "count" : 192,
            "type" : "VEC2"
        },
        {
            "bufferView" : 25,
            "componentType" : 5126,
            "count" : 192,
            "max" : [
                0.05000000074505806,
                2,
                0.05000000074505806
            ],
            "min" : [
                -0.05000000074505806,
                -2,
                -0.05000000074505806
            ],
            "type" : "VEC3"
        },
        {
            "bufferView" : 26,
            "componentType" : 5126,
            "count" : 192,
            "type" : "VEC3"
        },
        {
            "bufferView" : 27,
            "componentType" : 5126,
            "count" : 192,
            "type" : "VEC2"
        }
    ],
    "bufferViews" : [
        {
            "buffer" : 0,
            "byteLength" : 2304,
            "byteOffset" : 0
        },
        {
            "buffer" : 0,
            "byteLength" : 2304,
            "byteOffset" : 2304
        },
        {
            "buffer" : 0,
            "byteLength" : 1536,
            "byteOffset" : 4608
        },
        {
            "buffer" : 0,
            "byteLength" : 744,
            "byteOffset" : 6144
        },
        {
            "buffer" : 0,
            "byteLength" : 2304,
            "byteOffset" : 6888
        },
        {
            "buffer" : 0,
            "byteLength" : 2304,
            "byteOffset" : 9192
        },
        {
            "buffer" : 0,
            "byteLength" : 1536,
            "byteOffset" : 11496
        },
        {
            "buffer" : 0,
            "byteLength" : 2304,
            "byteOffset" : 13032
        },
        {
            "buffer" : 0,
            "byteLength" : 2304,
            "byteOffset" : 15336
        },
        {
            "buffer" : 0,
            "byteLength" : 1536,
            "byteOffset" : 17640
        },
        {
            "buffer" : 0,
            "byteLength" : 2304,
            "byteOffset" : 19176
        },
        {
            "buffer" : 0,
            "byteLength" : 2304,
            "byteOffset" : 21480
        },
        {
            "buffer" : 0,
            "byteLength" : 1536,
            "byteOffset" : 23784
        },
        {
            "buffer" : 0,
            "byteLength" : 2304,
            "byteOffset" : 25320
        },
        {
            "buffer" : 0,
            "byteLength" : 2304,
            "byteOffset" : 27624
        },
        {
            "buffer" : 0,
            "byteLength" : 1536,
            "byteOffset" : 29928
        },
        {
            "buffer" : 0,
            "byteLength" : 2304,
            "byteOffset" : 31464
        },
        {
            "buffer" : 0,
            "byteLength" : 2304,
            "byteOffset" : 33768
        },
        {
            "buffer" : 0,
            "byteLength" : 1536,
            "byteOffset" : 36072
        },
        {
            "buffer" : 0,
            "byteLength" : 2304,
            "byteOffset" : 37608
        },
        {
            "buffer" : 0,
            "byteLength" : 2304,
            "byteOffset" : 39912
        },
        {
            "buffer" : 0,
            "byteLength" : 1536,
            "byteOffset" : 42216
        },
        {
            "buffer" : 0,
            "byteLength" : 2304,
            "byteOffset" : 43752
        },
        {
            "buffer" : 0,
            "byteLength" : 2304,
            "byteOffset" : 46056
        },
        {
            "buffer" : 0,
            "byteLength" : 1536,
            "byteOffset" : 48360
        },
        {
            "buffer" : 0,
            "byteLength" : 2304,
            "byteOffset" : 49896
        },
        {
            "buffer" : 0,
            "byteLength" : 2304,
            "byteOffset" : 52200
        },
        {
            "buffer" : 0,
            "byteLength" : 1536,
            "byteOffset" : 54504
        }
    ],
    "buffers" : [
        {
            "byteLength" : 56040,
            "uri" : "data:application/octet-stream;base64,"
        }
    ]
}
