{
	"asset" : {
		"generator" : "FME 2022.0.1.1",
		"version" : "2.0"
	},
	"materials" : [
		{
			"name" : "default_material",
			"pbrMetallicRoughness" : {
				"baseColorFactor" : [ 0.8, 0.8, 0.8, 1 ],
				"roughnessFactor" : 0.30000000000000004,
				"metallicFactor" : 0.5
			}
		}
	],
	"meshes" : [
		{
			"primitives" : [
				{
					"attributes" : {
						"POSITION" : 0
					},
					"material" : 0,
					"mode" : 3
				}
			]
		}
	],
	"nodes" : [
		{
			"name" : "shapefile",
			"mesh" : 0
		}
	],
	"scenes" : [
		{
			"nodes" : [ 0 ]
		}
	],
	"scene" : 0,
	"accessors" : [
		{
			"bufferView" : 0,
			"byteOffset" : 0,
			"componentType" : 5126,
			"count" : 36,
			"type" : "VEC3",
			"min" : [ 170030.125, 0.29499998688697815, -2544364.75 ],
			"max" : [ 170048.8125, 4.818999767303467, -2544346 ]
		}
	],
	"bufferViews" : [
		{
			"buffer" : 0,
			"byteOffset" : 0,
			"byteLength" : 432,
			"target" : 34962
		}
	],
	"buffers" : [
		{
			"uri" : "route.bin",
			"byteLength" : 432
		}
	]
}